<svg xmlns="http://www.w3.org/2000/svg" viewBox="0 0 800 500" width="800" height="500" font-family="Helvetica Neue, Helvetica, Arial, sans-serif"><defs><linearGradient id="bg" x1="0" y1="0" x2="1" y2="1"><stop offset="0" stop-color="#0a0b0e"/><stop offset="1" stop-color="#1b1f28"/></linearGradient></defs><rect width="800" height="500" fill="url(#bg)"/><rect x="28" y="28" width="490" height="444" rx="20" fill="#13161c" stroke="#262b35"/><text x="52" y="62" fill="#8b93a1" font-size="12" font-weight="600" letter-spacing="1.4">LIVE OCCUPANCY · LOT A</text><circle cx="478" cy="57" r="5" fill="#7cf0b0"/><rect x="52" y="84" width="54" height="104" rx="6" fill="#1a1e26" stroke="#2c3340" stroke-dasharray="4 4"/><rect x="61" y="94" width="36" height="84" rx="14" fill="#9ca3af"/><rect x="66" y="110" width="26" height="18" rx="5" fill="#2b2f38" opacity=".75"/><rect x="66" y="150" width="26" height="12" rx="4" fill="#2b2f38" opacity=".55"/><rect x="114" y="84" width="54" height="104" rx="6" fill="#1a1e26" stroke="#2c3340" stroke-dasharray="4 4"/><rect x="123" y="94" width="36" height="84" rx="14" fill="#cbd5e1"/><rect x="128" y="110" width="26" height="18" rx="5" fill="#2b2f38" opacity=".75"/><rect x="128" y="150" width="26" height="12" rx="4" fill="#2b2f38" opacity=".55"/><rect x="176" y="84" width="54" height="104" rx="6" fill="rgba(124,240,176,0.10)" stroke="#2c3340" stroke-dasharray="4 4"/><text x="203.0" y="142" fill="#7cf0b0" font-size="22" font-weight="700" text-anchor="middle" opacity=".8">P</text><rect x="238" y="84" width="54" height="104" rx="6" fill="#1a1e26" stroke="#2c3340" stroke-dasharray="4 4"/><rect x="247" y="94" width="36" height="84" rx="14" fill="#e5e7eb"/><rect x="252" y="110" width="26" height="18" rx="5" fill="#2b2f38" opacity=".75"/><rect x="252" y="150" width="26" height="12" rx="4" fill="#2b2f38" opacity=".55"/><rect x="300" y="84" width="54" height="104" rx="6" fill="#1a1e26" stroke="#2c3340" stroke-dasharray="4 4"/><rect x="309" y="94" width="36" height="84" rx="14" fill="#f3f4f6"/><rect x="314" y="110" width="26" height="18" rx="5" fill="#2b2f38" opacity=".75"/><rect x="314" y="150" width="26" height="12" rx="4" fill="#2b2f38" opacity=".55"/><rect x="362" y="84" width="54" height="104" rx="6" fill="rgba(124,240,176,0.10)" stroke="#2c3340" stroke-dasharray="4 4"/><text x="389.0" y="142" fill="#7cf0b0" font-size="22" font-weight="700" text-anchor="middle" opacity=".8">P</text><rect x="424" y="84" width="54" height="104" rx="6" fill="#1a1e26" stroke="#2c3340" stroke-dasharray="4 4"/><rect x="433" y="94" width="36" height="84" rx="14" fill="#6b7280"/><rect x="438" y="110" width="26" height="18" rx="5" fill="#2b2f38" opacity=".75"/><rect x="438" y="150" width="26" height="12" rx="4" fill="#2b2f38" opacity=".55"/><rect x="52" y="312" width="54" height="104" rx="6" fill="rgba(124,240,176,0.10)" stroke="#2c3340" stroke-dasharray="4 4"/><text x="79.0" y="370" fill="#7cf0b0" font-size="22" font-weight="700" text-anchor="middle" opacity=".8">P</text><rect x="114" y="312" width="54" height="104" rx="6" fill="#1a1e26" stroke="#2c3340" stroke-dasharray="4 4"/><rect x="123" y="322" width="36" height="84" rx="14" fill="#6b7280"/><rect x="128" y="338" width="26" height="18" rx="5" fill="#2b2f38" opacity=".75"/><rect x="128" y="378" width="26" height="12" rx="4" fill="#2b2f38" opacity=".55"/><rect x="176" y="312" width="54" height="104" rx="6" fill="#1a1e26" stroke="#2c3340" stroke-dasharray="4 4"/><rect x="185" y="322" width="36" height="84" rx="14" fill="#9ca3af"/><rect x="190" y="338" width="26" height="18" rx="5" fill="#2b2f38" opacity=".75"/><rect x="190" y="378" width="26" height="12" rx="4" fill="#2b2f38" opacity=".55"/><rect x="238" y="312" width="54" height="104" rx="6" fill="rgba(124,240,176,0.10)" stroke="#2c3340" stroke-dasharray="4 4"/><text x="265.0" y="370" fill="#7cf0b0" font-size="22" font-weight="700" text-anchor="middle" opacity=".8">P</text><rect x="300" y="312" width="54" height="104" rx="6" fill="rgba(124,240,176,0.10)" stroke="#2c3340" stroke-dasharray="4 4"/><text x="327.0" y="370" fill="#7cf0b0" font-size="22" font-weight="700" text-anchor="middle" opacity=".8">P</text><rect x="362" y="312" width="54" height="104" rx="6" fill="#1a1e26" stroke="#2c3340" stroke-dasharray="4 4"/><rect x="371" y="322" width="36" height="84" rx="14" fill="#e5e7eb"/><rect x="376" y="338" width="26" height="18" rx="5" fill="#2b2f38" opacity=".75"/><rect x="376" y="378" width="26" height="12" rx="4" fill="#2b2f38" opacity=".55"/><rect x="424" y="312" width="54" height="104" rx="6" fill="#1a1e26" stroke="#2c3340" stroke-dasharray="4 4"/><rect x="433" y="322" width="36" height="84" rx="14" fill="#e5e7eb"/><rect x="438" y="338" width="26" height="18" rx="5" fill="#2b2f38" opacity=".75"/><rect x="438" y="378" width="26" height="12" rx="4" fill="#2b2f38" opacity=".55"/><rect x="117" y="88" width="48" height="96" rx="8" fill="none" stroke="#7cf0b0" stroke-width="2"/><rect x="117" y="70" width="62" height="16" rx="4" fill="#7cf0b0"/><text x="122" y="82" fill="#06210f" font-size="10" font-weight="700">car 0.96</text><rect x="241" y="88" width="48" height="96" rx="8" fill="none" stroke="#7cf0b0" stroke-width="2"/><rect x="241" y="70" width="62" height="16" rx="4" fill="#7cf0b0"/><text x="246" y="82" fill="#06210f" font-size="10" font-weight="700">car 0.91</text><rect x="365" y="316" width="48" height="96" rx="8" fill="none" stroke="#7cf0b0" stroke-width="2"/><rect x="365" y="298" width="62" height="16" rx="4" fill="#7cf0b0"/><text x="370" y="310" fill="#06210f" font-size="10" font-weight="700">car 0.94</text><rect x="52" y="206" width="426" height="90" rx="10" fill="#0e1015"/><path d="M72 251 H458" stroke="#2c3340" stroke-width="3" stroke-dasharray="14 10"/><rect x="318" y="228" width="92" height="46" rx="10" fill="#f3f4f6"/><rect x="334" y="238" width="60" height="26" rx="4" fill="#fff" stroke="#111" stroke-width="1.5"/><text x="364" y="256" fill="#111" font-size="11" font-weight="800" text-anchor="middle" font-family="Menlo, monospace">WXY 4821</text><rect x="548" y="38" width="226" height="424" rx="38" fill="#08090c" stroke="#2f3541" stroke-width="4"/><rect x="560" y="50" width="202" height="400" rx="28" fill="#12151b"/><rect x="626" y="58" width="70" height="16" rx="8" fill="#08090c"/><text x="580" y="108" fill="#8b93a1" font-size="11" font-weight="600">SMARTPARK APU</text><text x="580" y="152" fill="#fff" font-size="44" font-weight="800">42<tspan fill="#5d6574" font-size="22" font-weight="600"> / 60</tspan></text><text x="580" y="174" fill="#8b93a1" font-size="12">slots available now</text><rect x="580" y="190" width="162" height="8" rx="4" fill="#232833"/><rect x="580" y="190" width="113" height="8" rx="4" fill="#7cf0b0"/><rect x="580" y="218" width="162" height="42" rx="12" fill="#1a1e26"/><text x="594" y="244" fill="#e5e7eb" font-size="13" font-weight="600">Zone A</text><text x="728" y="244" fill="#7cf0b0" font-size="12" font-weight="700" text-anchor="end">12 free</text><rect x="580" y="270" width="162" height="42" rx="12" fill="#1a1e26"/><text x="594" y="296" fill="#e5e7eb" font-size="13" font-weight="600">Zone B</text><text x="728" y="296" fill="#7cf0b0" font-size="12" font-weight="700" text-anchor="end">8 free</text><rect x="580" y="322" width="162" height="42" rx="12" fill="#1a1e26"/><text x="594" y="348" fill="#e5e7eb" font-size="13" font-weight="600">Zone C</text><text x="728" y="348" fill="#f87171" font-size="12" font-weight="700" text-anchor="end">Full</text><rect x="580" y="388" width="162" height="42" rx="21" fill="#7cf0b0"/><text x="661" y="414" fill="#06210f" font-size="13" font-weight="800" text-anchor="middle">Find my car</text></svg>