<svg xmlns="http://www.w3.org/2000/svg" viewBox="0 0 800 500" width="800" height="500" font-family="Helvetica Neue, Helvetica, Arial, sans-serif"><defs><linearGradient id="bg" x1="0" y1="0" x2="1" y2="1"><stop offset="0" stop-color="#120e0d"/><stop offset="1" stop-color="#4a2c24"/></linearGradient></defs><rect width="800" height="500" fill="url(#bg)"/><rect x="28" y="28" width="744" height="444" rx="20" fill="rgba(255,255,255,0.04)" stroke="rgba(255,255,255,0.10)"/><text x="56" y="68" fill="#fff" font-size="22" font-weight="800">AAPL</text><text x="116" y="68" fill="#a89a94" font-size="14">Apple Inc · live</text><text x="744" y="68" fill="#4ade80" font-size="22" font-weight="800" text-anchor="end">+3.2%</text><line x1="56" y1="110" x2="744" y2="110" stroke="rgba(255,255,255,0.07)"/><line x1="56" y1="172" x2="744" y2="172" stroke="rgba(255,255,255,0.07)"/><line x1="56" y1="234" x2="744" y2="234" stroke="rgba(255,255,255,0.07)"/><line x1="56" y1="296" x2="744" y2="296" stroke="rgba(255,255,255,0.07)"/><line x1="56" y1="358" x2="744" y2="358" stroke="rgba(255,255,255,0.07)"/><line x1="62.0" y1="207.20570441588671" x2="62.0" y2="267.5298676166295" stroke="#f87171" stroke-width="1.6"/><rect x="57.5" y="231.61583904879876" width="9" height="3" rx="1.5" fill="#f87171"/><line x1="77.5" y1="209.24626289346412" x2="77.5" y2="257.80533581038344" stroke="#4ade80" stroke-width="1.6"/><rect x="73.0" y="232.15708890011385" width="9" height="3" rx="1.5" fill="#4ade80"/><line x1="93.0" y1="209.12883354244798" x2="93.0" y2="288.28255903968034" stroke="#f87171" stroke-width="1.6"/><rect x="88.5" y="232.15708890011385" width="9" height="29.691172675331842" rx="1.5" fill="#f87171"/><line x1="108.5" y1="215.3399513377788" x2="108.5" y2="278.8566785369642" stroke="#4ade80" stroke-width="1.6"/><rect x="104.0" y="226.30628673821758" width="9" height="35.54197483722811" rx="1.5" fill="#4ade80"/><line x1="124.0" y1="194.68206702961143" x2="124.0" y2="294.3457290095468" stroke="#f87171" stroke-width="1.6"/><rect x="119.5" y="226.30628673821758" width="9" height="39.77021970798722" rx="1.5" fill="#f87171"/><line x1="139.5" y1="229.47060968807952" x2="139.5" y2="347.18127997420225" stroke="#f87171" stroke-width="1.6"/><rect x="135.0" y="266.0765064462048" width="9" height="45.002262956824836" rx="1.5" fill="#f87171"/><line x1="155.0" y1="264.4274980115108" x2="155.0" y2="323.8746851850327" stroke="#4ade80" stroke-width="1.6"/><rect x="150.5" y="290.4483607980201" width="9" height="20.630408605009563" rx="1.5" fill="#4ade80"/><line x1="170.5" y1="266.94452248986823" x2="170.5" y2="348.301265356537" stroke="#f87171" stroke-width="1.6"/><rect x="166.0" y="290.4483607980201" width="9" height="47.8847111419941" rx="1.5" fill="#f87171"/><line x1="186.0" y1="323.09902254861385" x2="186.0" y2="376.5467153605417" stroke="#f87171" stroke-width="1.6"/><rect x="181.5" y="338.3330719400142" width="9" height="29.096238627437288" rx="1.5" fill="#f87171"/><line x1="201.5" y1="346.20486686176474" x2="201.5" y2="400.0" stroke="#4ade80" stroke-width="1.6"/><rect x="197.0" y="367.17237426288796" width="9" height="3" rx="1.5" fill="#4ade80"/><line x1="217.0" y1="334.26232957194634" x2="217.0" y2="389.85026470368325" stroke="#4ade80" stroke-width="1.6"/><rect x="212.5" y="360.99714601499346" width="9" height="6.175228247894495" rx="1.5" fill="#4ade80"/><line x1="232.5" y1="317.9998338809794" x2="232.5" y2="377.27690354480774" stroke="#4ade80" stroke-width="1.6"/><rect x="228.0" y="339.4523401917275" width="9" height="21.54480582326596" rx="1.5" fill="#4ade80"/><line x1="248.0" y1="244.96586310562813" x2="248.0" y2="371.9591788936036" stroke="#4ade80" stroke-width="1.6"/><rect x="243.5" y="281.96146841792256" width="9" height="57.49087177380494" rx="1.5" fill="#4ade80"/><line x1="263.5" y1="238.20116029426828" x2="263.5" y2="296.84106401576264" stroke="#4ade80" stroke-width="1.6"/><rect x="259.0" y="255.55244918416844" width="9" height="26.409019233754123" rx="1.5" fill="#4ade80"/><line x1="279.0" y1="245.27613194661774" x2="279.0" y2="304.4228847568808" stroke="#f87171" stroke-width="1.6"/><rect x="274.5" y="255.55244918416844" width="9" height="18.497970207684432" rx="1.5" fill="#f87171"/><line x1="294.5" y1="241.35972740223545" x2="294.5" y2="300.0146158786448" stroke="#f87171" stroke-width="1.6"/><rect x="290.0" y="274.05041939185287" width="9" height="6.556236462557365" rx="1.5" fill="#f87171"/><line x1="310.0" y1="194.6521361138267" x2="310.0" y2="288.87127598483966" stroke="#4ade80" stroke-width="1.6"/><rect x="305.5" y="227.36379289751736" width="9" height="53.24286295689288" rx="1.5" fill="#4ade80"/><line x1="325.5" y1="192.83434911995565" x2="325.5" y2="276.1858964848802" stroke="#f87171" stroke-width="1.6"/><rect x="321.0" y="227.36379289751736" width="9" height="27.004164311131717" rx="1.5" fill="#f87171"/><line x1="341.0" y1="179.00899775722135" x2="341.0" y2="264.7255421113039" stroke="#4ade80" stroke-width="1.6"/><rect x="336.5" y="198.73196626345637" width="9" height="55.6359909451927" rx="1.5" fill="#4ade80"/><line x1="356.5" y1="150.0" x2="356.5" y2="214.7695728028154" stroke="#4ade80" stroke-width="1.6"/><rect x="352.0" y="180.72535608298568" width="9" height="18.006610180470688" rx="1.5" fill="#4ade80"/><line x1="372.0" y1="162.87435431222445" x2="372.0" y2="256.9565576999435" stroke="#f87171" stroke-width="1.6"/><rect x="367.5" y="180.72535608298568" width="9" height="40.148368567072424" rx="1.5" fill="#f87171"/><line x1="387.5" y1="177.4227311549043" x2="387.5" y2="236.2361042339589" stroke="#4ade80" stroke-width="1.6"/><rect x="383.0" y="189.0781685376223" width="9" height="31.795556112435804" rx="1.5" fill="#4ade80"/><line x1="403.0" y1="179.10009260611358" x2="403.0" y2="258.99551595428716" stroke="#f87171" stroke-width="1.6"/><rect x="398.5" y="189.0781685376223" width="9" height="38.657568319063984" rx="1.5" fill="#f87171"/><line x1="418.5" y1="203.33938079906898" x2="418.5" y2="279.342189048808" stroke="#f87171" stroke-width="1.6"/><rect x="414.0" y="227.7357368566863" width="9" height="30.439914296548636" rx="1.5" fill="#f87171"/><line x1="434.0" y1="228.79616907253083" x2="434.0" y2="299.25088095908063" stroke="#f87171" stroke-width="1.6"/><rect x="429.5" y="258.1756511532349" width="9" height="29.045178160864452" rx="1.5" fill="#f87171"/><line x1="449.5" y1="256.0724161862033" x2="449.5" y2="307.61739619168696" stroke="#4ade80" stroke-width="1.6"/><rect x="445.0" y="267.68501774748495" width="9" height="19.535811566614427" rx="1.5" fill="#4ade80"/><line x1="465.0" y1="251.64685138756707" x2="465.0" y2="330.63225900579994" stroke="#f87171" stroke-width="1.6"/><rect x="460.5" y="267.68501774748495" width="9" height="26.66655915481033" rx="1.5" fill="#f87171"/><line x1="480.5" y1="240.66074508099027" x2="480.5" y2="328.14749784135057" stroke="#4ade80" stroke-width="1.6"/><rect x="476.0" y="257.6906388894463" width="9" height="36.66093801284899" rx="1.5" fill="#4ade80"/><line x1="496.0" y1="238.05860717584372" x2="496.0" y2="317.50403163491296" stroke="#f87171" stroke-width="1.6"/><rect x="491.5" y="257.6906388894463" width="9" height="26.89770015443753" rx="1.5" fill="#f87171"/><line x1="511.5" y1="254.10846849966583" x2="511.5" y2="321.3994596066195" stroke="#4ade80" stroke-width="1.6"/><rect x="507.0" y="265.25407313672923" width="9" height="19.334265907154588" rx="1.5" fill="#4ade80"/><line x1="525.5" y1="100" x2="525.5" y2="420" stroke="rgba(255,255,255,0.25)" stroke-dasharray="5 5"/><rect x="525.5" y="100" width="218.5" height="320" fill="rgba(206,179,166,0.07)"/><path d="M511.5 265.3 L544.5 252.8 L577.5 244.4 L610.5 241.5 L643.5 227.2 L676.5 217.8 L709.5 206.1 L742.5 197.3" fill="none" stroke="#e8cfc2" stroke-width="3" stroke-dasharray="9 7" stroke-linecap="round"/><circle cx="742.5" cy="197.3" r="7" fill="#e8cfc2"/><circle cx="742.5" cy="197.3" r="14" fill="none" stroke="#e8cfc2" stroke-opacity=".4"/><text x="535.5" y="126" fill="#e8cfc2" font-size="11" font-weight="700" letter-spacing="1.2">AI PREDICTION</text><rect x="56" y="428" width="108" height="30" rx="15" fill="rgba(255,255,255,0.07)"/><text x="70" y="448" fill="#a89a94" font-size="10">Model</text><text x="150" y="448" fill="#fff" font-size="11" font-weight="700" text-anchor="end">LSTM</text><rect x="176" y="428" width="108" height="30" rx="15" fill="rgba(255,255,255,0.07)"/><text x="190" y="448" fill="#a89a94" font-size="10">Sentiment</text><text x="270" y="448" fill="#4ade80" font-size="11" font-weight="700" text-anchor="end">+0.42</text><rect x="296" y="428" width="108" height="30" rx="15" fill="rgba(255,255,255,0.07)"/><text x="310" y="448" fill="#a89a94" font-size="10">Horizon</text><text x="390" y="448" fill="#fff" font-size="11" font-weight="700" text-anchor="end">7 days</text></svg>