<svg xmlns="http://www.w3.org/2000/svg" viewBox="0 0 800 500" width="800" height="500" font-family="Helvetica Neue, Helvetica, Arial, sans-serif"><defs></defs><rect width="800" height="500" fill="#0f1318"/><rect x="16" y="14" width="73" height="50" rx="8" fill="#171d25"/><rect x="16" y="100" width="75" height="55" rx="8" fill="#171d25"/><rect x="16" y="186" width="58" height="57" rx="8" fill="#171d25"/><rect x="16" y="358" width="64" height="56" rx="8" fill="#171d25"/><rect x="16" y="444" width="71" height="56" rx="8" fill="#171d25"/><rect x="116" y="14" width="71" height="54" rx="8" fill="#171d25"/><rect x="116" y="100" width="60" height="51" rx="8" fill="#171d25"/><rect x="116" y="186" width="72" height="54" rx="8" fill="#171d25"/><rect x="116" y="272" width="58" height="50" rx="8" fill="#171d25"/><rect x="116" y="358" width="74" height="48" rx="8" fill="#171d25"/><rect x="116" y="444" width="56" height="52" rx="8" fill="#171d25"/><rect x="216" y="14" width="68" height="59" rx="8" fill="#171d25"/><rect x="216" y="100" width="69" height="54" rx="8" fill="#171d25"/><rect x="216" y="186" width="74" height="55" rx="8" fill="#171d25"/><rect x="216" y="272" width="60" height="53" rx="8" fill="#171d25"/><rect x="316" y="14" width="69" height="60" rx="8" fill="#171d25"/><rect x="316" y="100" width="65" height="54" rx="8" fill="#171d25"/><rect x="316" y="186" width="68" height="57" rx="8" fill="#171d25"/><rect x="316" y="272" width="74" height="54" rx="8" fill="#171d25"/><rect x="316" y="358" width="66" height="58" rx="8" fill="#171d25"/><rect x="316" y="444" width="56" height="52" rx="8" fill="#171d25"/><rect x="416" y="14" width="61" height="59" rx="8" fill="#171d25"/><rect x="416" y="100" width="73" height="57" rx="8" fill="#171d25"/><rect x="416" y="186" width="76" height="51" rx="8" fill="#171d25"/><rect x="416" y="272" width="74" height="52" rx="8" fill="#171d25"/><rect x="416" y="358" width="58" height="55" rx="8" fill="#171d25"/><rect x="416" y="444" width="71" height="49" rx="8" fill="#171d25"/><rect x="516" y="14" width="58" height="54" rx="8" fill="#171d25"/><rect x="516" y="100" width="56" height="52" rx="8" fill="#171d25"/><rect x="516" y="186" width="69" height="49" rx="8" fill="#171d25"/><rect x="516" y="358" width="57" height="54" rx="8" fill="#171d25"/><rect x="516" y="444" width="66" height="56" rx="8" fill="#171d25"/><rect x="616" y="14" width="64" height="56" rx="8" fill="#171d25"/><rect x="616" y="100" width="57" height="52" rx="8" fill="#171d25"/><rect x="616" y="358" width="62" height="54" rx="8" fill="#171d25"/><rect x="616" y="444" width="64" height="50" rx="8" fill="#171d25"/><rect x="716" y="14" width="66" height="53" rx="8" fill="#171d25"/><rect x="716" y="100" width="60" height="54" rx="8" fill="#171d25"/><rect x="716" y="186" width="72" height="54" rx="8" fill="#171d25"/><rect x="716" y="272" width="75" height="58" rx="8" fill="#171d25"/><rect x="716" y="358" width="75" height="60" rx="8" fill="#171d25"/><rect x="716" y="444" width="69" height="58" rx="8" fill="#171d25"/><rect x="816" y="14" width="63" height="52" rx="8" fill="#171d25"/><rect x="816" y="100" width="64" height="56" rx="8" fill="#171d25"/><rect x="816" y="186" width="66" height="48" rx="8" fill="#171d25"/><rect x="816" y="272" width="74" height="53" rx="8" fill="#171d25"/><rect x="816" y="444" width="76" height="50" rx="8" fill="#171d25"/><line x1="4" y1="0" x2="4" y2="500" stroke="#222a34" stroke-width="12"/><line x1="104" y1="0" x2="104" y2="500" stroke="#222a34" stroke-width="12"/><line x1="204" y1="0" x2="204" y2="500" stroke="#222a34" stroke-width="12"/><line x1="304" y1="0" x2="304" y2="500" stroke="#222a34" stroke-width="12"/><line x1="404" y1="0" x2="404" y2="500" stroke="#222a34" stroke-width="12"/><line x1="504" y1="0" x2="504" y2="500" stroke="#222a34" stroke-width="12"/><line x1="604" y1="0" x2="604" y2="500" stroke="#222a34" stroke-width="12"/><line x1="704" y1="0" x2="704" y2="500" stroke="#222a34" stroke-width="12"/><line x1="804" y1="0" x2="804" y2="500" stroke="#222a34" stroke-width="12"/><line x1="0" y1="4" x2="800" y2="4" stroke="#222a34" stroke-width="12"/><line x1="0" y1="90" x2="800" y2="90" stroke="#222a34" stroke-width="12"/><line x1="0" y1="176" x2="800" y2="176" stroke="#222a34" stroke-width="12"/><line x1="0" y1="262" x2="800" y2="262" stroke="#222a34" stroke-width="12"/><line x1="0" y1="348" x2="800" y2="348" stroke="#222a34" stroke-width="12"/><line x1="0" y1="434" x2="800" y2="434" stroke="#222a34" stroke-width="12"/><path d="M104 4 V176 H304 V348 H604 V176 H704" fill="none" stroke="#0f1318" stroke-width="16" stroke-linecap="round" stroke-linejoin="round"/><path d="M104 432 V348" fill="none" stroke="#4ade80" stroke-width="9" stroke-linecap="round" stroke-linejoin="round"/><path d="M104 348 H304 V262" fill="none" stroke="#4ade80" stroke-width="9" stroke-linecap="round" stroke-linejoin="round"/><path d="M304 262 V176 H404" fill="none" stroke="#fb923c" stroke-width="9" stroke-linecap="round" stroke-linejoin="round"/><path d="M404 176 H504" fill="none" stroke="#f87171" stroke-width="9" stroke-linecap="round" stroke-linejoin="round"/><path d="M504 176 H604 V90 H704" fill="none" stroke="#4ade80" stroke-width="9" stroke-linecap="round" stroke-linejoin="round"/><circle cx="104" cy="432" r="13" fill="#fff"/><circle cx="104" cy="432" r="5" fill="#0f1318"/><circle cx="704" cy="90" r="15" fill="#fff"/><path d="M704 82 l7 10 h-14z" fill="#0f1318"/><rect x="28" y="28" width="262" height="108" rx="18" fill="rgba(15,19,24,0.92)" stroke="#2a323d"/><text x="48" y="58" fill="#8b93a1" font-size="11" font-weight="600" letter-spacing="1.2">FROM</text><text x="48" y="78" fill="#fff" font-size="15" font-weight="700">Current location</text><line x1="48" y1="90" x2="270" y2="90" stroke="#2a323d"/><text x="48" y="110" fill="#8b93a1" font-size="11" font-weight="600" letter-spacing="1.2">TO</text><text x="48" y="128" fill="#fff" font-size="15" font-weight="700">Desired location</text><rect x="480" y="372" width="292" height="100" rx="18" fill="rgba(15,19,24,0.94)" stroke="#2a323d"/><text x="502" y="408" fill="#fff" font-size="30" font-weight="800">18 min</text><text x="502" y="432" fill="#8b93a1" font-size="12">Predicted travel time</text><rect x="632" y="392" width="118" height="26" rx="13" fill="rgba(248,113,113,0.16)"/><text x="691" y="410" fill="#f87171" font-size="11" font-weight="700" text-anchor="middle">Heavy at 8:30</text><rect x="632" y="426" width="118" height="26" rx="13" fill="rgba(74,222,128,0.14)"/><text x="691" y="444" fill="#4ade80" font-size="11" font-weight="700" text-anchor="middle">Reroute saves 6m</text></svg>